<svg xmlns="http://www.w3.org/2000/svg" xmlns:xlink="http://www.w3.org/1999/xlink" width="92.313" height="92.313" viewBox="0 0 92.313 92.313">
  <defs>
    <filter id="Ellipse_22" x="0" y="0" width="92.313" height="92.313" filterUnits="userSpaceOnUse">
      <feOffset dy="6" input="SourceAlpha"/>
      <feGaussianBlur stdDeviation="6" result="blur"/>
      <feFlood flood-color="#ef4b5b" flood-opacity="0.561"/>
      <feComposite operator="in" in2="blur"/>
      <feComposite in="SourceGraphic"/>
    </filter>
  </defs>
  <g id="Group_21" data-name="Group 21" transform="translate(-334 -837.315)">
    <g transform="matrix(1, 0, 0, 1, 334, 837.32)" filter="url(#Ellipse_22)">
      <ellipse id="Ellipse_22-2" data-name="Ellipse 22" cx="28.156" cy="28.156" rx="28.156" ry="28.156" transform="translate(18 12)" fill="#ef4b5b"/>
    </g>
    <g id="chat_3_" data-name="chat (3)" transform="translate(368.346 865.662)">
      <g id="Group_4" data-name="Group 4">
        <g id="Group_3" data-name="Group 3">
          <path id="Path_44252" data-name="Path 44252" d="M15.27,0h-8.3A7.007,7.007,0,0,0,0,6.966a6.971,6.971,0,0,0,6,6.853,3.065,3.065,0,0,0,.964.067v2.076a.692.692,0,0,0,1.076.576l3.978-2.652h3.25a6.968,6.968,0,0,0,6.966-6.92A7.007,7.007,0,0,0,15.27,0Zm-8.3,8.35A1.384,1.384,0,1,1,8.35,6.966,1.386,1.386,0,0,1,6.966,8.35Zm4.152,0A1.384,1.384,0,1,1,12.5,6.966,1.386,1.386,0,0,1,11.118,8.35Zm4.152,0a1.384,1.384,0,1,1,1.384-1.384A1.386,1.386,0,0,1,15.27,8.35Z" fill="#fff"/>
        </g>
      </g>
      <g id="Group_6" data-name="Group 6" transform="translate(1.384 10.615)">
        <g id="Group_5" data-name="Group 5">
          <path id="Path_44253" data-name="Path 44253" d="M51.38,230.1a8.375,8.375,0,0,1-7.494,4.655H41.054l-3.629,2.419a2.076,2.076,0,0,1-3.227-1.727v-.808a8.381,8.381,0,0,1-4.128-1.97,6.619,6.619,0,0,0,6.9,7.621h3.25l3.978,2.7a.692.692,0,0,0,1.076-.576v-2.122a3.065,3.065,0,0,0,.964-.067,6.971,6.971,0,0,0,6-6.853A6.848,6.848,0,0,0,51.38,230.1Z" transform="translate(-30 -230.1)" fill="#fff"/>
        </g>
      </g>
    </g>
  </g>
</svg>
