<svg xmlns="http://www.w3.org/2000/svg" width="14.84" height="14.84" viewBox="0 0 14.84 14.84">
  <path id="chat_2_" data-name="chat (2)" d="M12.467,1H4.373A3.377,3.377,0,0,0,1,4.373v5.4a3.379,3.379,0,0,0,2.7,3.305v2.091a.675.675,0,0,0,1.049.561l3.875-2.585h3.845A3.377,3.377,0,0,0,15.84,9.769v-5.4A3.377,3.377,0,0,0,12.467,1ZM11.118,9.095h-5.4a.675.675,0,0,1,0-1.349h5.4a.675.675,0,0,1,0,1.349Zm1.349-2.7H4.373a.675.675,0,0,1,0-1.349h8.095a.675.675,0,0,1,0,1.349Z" transform="translate(-1 -1)" fill="#fff"/>
</svg>
