<svg xmlns="http://www.w3.org/2000/svg" width="52" height="50" viewBox="0 0 52 50">
  <g id="Group_68" data-name="Group 68" transform="translate(-366 -138)">
    <path id="Rectangle_40" data-name="Rectangle 40" d="M0,0H37A15,15,0,0,1,52,15V35A15,15,0,0,1,37,50H0a0,0,0,0,1,0,0V0A0,0,0,0,1,0,0Z" transform="translate(366 138)" fill="#e5e0fb"/>
    <g id="fast-forward-double-right-arrows-symbol" transform="translate(384.518 156)">
      <g id="_x35__11_" transform="translate(0)">
        <g id="Group_67" data-name="Group 67">
          <path id="Path_44303" data-name="Path 44303" d="M14.6,6.628,8.371.4A1.257,1.257,0,0,0,6.593,2.181l5.335,5.335L6.593,12.852A1.257,1.257,0,1,0,8.371,14.63L14.6,8.4A1.256,1.256,0,0,0,14.6,6.628ZM7.111,6.251,2.169,1.042a1.226,1.226,0,0,0-1.8,0,1.39,1.39,0,0,0,0,1.894L4.415,7.2.372,11.46a1.39,1.39,0,0,0,0,1.894,1.226,1.226,0,0,0,1.8,0L7.111,8.145A1.39,1.39,0,0,0,7.111,6.251Z" transform="translate(0.001 -0.035)" fill="#684be2"/>
        </g>
      </g>
    </g>
  </g>
</svg>
