<svg xmlns="http://www.w3.org/2000/svg" width="14.513" height="14.632" viewBox="0 0 14.513 14.632">
  <g id="Glyph" transform="translate(-0.718 -0.25)">
    <circle id="Ellipse_19" data-name="Ellipse 19" cx="1.546" cy="1.546" r="1.546" transform="translate(6.42 7.38)" fill="#fff"/>
    <circle id="Ellipse_20" data-name="Ellipse 20" cx="1.374" cy="1.374" r="1.374" transform="translate(11.059 8.296)" fill="#fff"/>
    <circle id="Ellipse_21" data-name="Ellipse 21" cx="1.374" cy="1.374" r="1.374" transform="translate(2.125 8.296)" fill="#fff"/>
    <path id="Path_44247" data-name="Path 44247" d="M1.251,100.334H4.315a.173.173,0,0,0,.162-.23.859.859,0,0,1-.043-.169,3.42,3.42,0,0,1-.034-.479,3.539,3.539,0,0,1,.641-2.036.173.173,0,0,0-.05-.244A2.8,2.8,0,0,0,.718,99.554a2.659,2.659,0,0,0,.021.33.517.517,0,0,0,.512.451Z" transform="translate(0 -85.452)" fill="#fff"/>
    <path id="Path_44248" data-name="Path 44248" d="M89.4,97.18a.173.173,0,0,0-.05.244,3.541,3.541,0,0,1,.636,2.029,3.407,3.407,0,0,1-.034.479.848.848,0,0,1-.043.17.173.173,0,0,0,.162.23h3.081a.516.516,0,0,0,.512-.451,2.633,2.633,0,0,0,.021-.33A2.8,2.8,0,0,0,89.4,97.18Z" transform="translate(-78.457 -85.449)" fill="#fff"/>
    <path id="Path_44249" data-name="Path 44249" d="M35.86,95.412a3.076,3.076,0,0,0,.031.431.521.521,0,0,0,.512.448h5.36a.521.521,0,0,0,.512-.448,3.081,3.081,0,0,0,.031-.431,3.223,3.223,0,1,0-6.446,0Z" transform="translate(-31.116 -81.409)" fill="#fff"/>
    <path id="Path_44250" data-name="Path 44250" d="M80.934,18.647a3.49,3.49,0,0,1-2.035,3,.173.173,0,0,0,.09.323,4.521,4.521,0,0,0,.5-.055L81,22.326a.519.519,0,0,0,.607-.708,2,2,0,0,1-.184-.632,2.282,2.282,0,0,0,.741-1.637,2.427,2.427,0,0,0-1.189-2,.173.173,0,0,0-.254.207A2.887,2.887,0,0,1,80.934,18.647Z" transform="translate(-69.148 -15.121)" fill="#fff"/>
    <path id="Path_44251" data-name="Path 44251" d="M20.848,5.577a2.552,2.552,0,0,1-.239.835.609.609,0,0,0,.715.832l1.915-.522a5.567,5.567,0,0,0,.935.08c2.351,0,4.263-1.47,4.263-3.276S26.525.25,24.173.25,19.91,1.72,19.91,3.526a2.847,2.847,0,0,0,.938,2.051Zm5.372-2.55a.515.515,0,1,1-.515.515A.515.515,0,0,1,26.22,3.028Zm-2.062,0a.515.515,0,1,1-.515.515A.515.515,0,0,1,24.158,3.028Zm-2.062,0a.515.515,0,1,1-.515.515A.515.515,0,0,1,22.1,3.028Z" transform="translate(-16.994)" fill="#fff"/>
  </g>
</svg>
