<svg xmlns="http://www.w3.org/2000/svg" width="16.024" height="13.632" viewBox="0 0 16.024 13.632">
  <g id="image" transform="translate(-2 -4.09)">
    <path id="Path_44240" data-name="Path 44240" d="M17.6,4.09H9A2.473,2.473,0,0,0,6.81,5.406h8.327a3.629,3.629,0,0,1,3.628,3.628v5.935a2.48,2.48,0,0,0,1.316-2.192V6.568A2.484,2.484,0,0,0,17.6,4.09Z" transform="translate(-2.057)" fill="#fff"/>
    <path id="Path_44241" data-name="Path 44241" d="M13.08,8.39h-8.6A2.485,2.485,0,0,0,2,10.874v6.209a2.484,2.484,0,0,0,2.484,2.478h8.6a2.484,2.484,0,0,0,2.484-2.478V10.874A2.485,2.485,0,0,0,13.08,8.39ZM6.161,11.4h.006a.575.575,0,1,1-.006,0Zm7.257,5.071a.561.561,0,0,1-.784-.177l-2.14-3.405L7.98,16.906a.006.006,0,0,1-.006.006.544.544,0,0,1-.149.155c-.006,0-.011.011-.017.017s-.011.006-.017.006a.563.563,0,0,1-.584.006c-.006,0-.011-.006-.017-.006a1.016,1.016,0,0,1-.172-.172L5.811,15.074l-.836,1.27a.571.571,0,1,1-.967-.607l.921-1.414a1.051,1.051,0,0,1,1.763.006l.79,1.213L9.606,12.15a1.051,1.051,0,0,1,1.78,0L13.6,15.681a.574.574,0,0,1-.183.79Z" transform="translate(0 -1.839)" fill="#fff"/>
  </g>
</svg>
